<?xml version="1.0" encoding="UTF-8"?><svg id="OPCION_1" xmlns="http://www.w3.org/2000/svg" viewBox="0 0 337.64 89.83"><g id="Icono"><path d="M61.98,60.73c-6.11,0-10.74-1.94-13.9-5.83-3.16-3.88-4.74-9.43-4.74-16.65s1.57-12.82,4.7-16.65,7.78-5.74,13.94-5.74,10.89,1.91,14.03,5.74c3.13,3.83,4.7,9.38,4.7,16.65s-1.58,12.77-4.75,16.65c-3.16,3.89-7.82,5.83-13.99,5.83h.01ZM62.07,48.49c1.55,0,2.58-.69,3.08-2.08s.75-4.11.75-8.16-.25-6.76-.75-8.12c-.5-1.36-1.53-2.04-3.08-2.04s-2.59.68-3.12,2.04-.79,4.07-.79,8.12.26,6.77.79,8.16c.53,1.39,1.57,2.08,3.12,2.08Z" fill="#fff"/><path d="M61.98,61.23c-6.23,0-11.04-2.02-14.29-6.01-3.22-3.96-4.86-9.66-4.86-16.96s1.62-13.06,4.82-16.97c3.22-3.93,8.04-5.93,14.33-5.93s11.19,1.99,14.41,5.93c3.2,3.9,4.82,9.61,4.82,16.97s-1.63,13.01-4.86,16.96c-3.25,3.99-8.08,6.01-14.37,6.01ZM61.98,16.36c-5.98,0-10.54,1.87-13.56,5.56-3.05,3.72-4.59,9.21-4.59,16.33s1.56,12.56,4.63,16.33c3.05,3.75,7.6,5.64,13.51,5.64s10.55-1.9,13.6-5.64c3.07-3.77,4.63-9.27,4.63-16.33s-1.54-12.61-4.59-16.33c-3.02-3.69-7.61-5.56-13.64-5.56h.01ZM62.07,48.99c-1.75,0-2.99-.83-3.59-2.4-.55-1.46-.82-4.18-.82-8.34s.27-6.87.83-8.3c.6-1.54,1.84-2.36,3.59-2.36s2.98.82,3.55,2.37c.52,1.43.78,4.14.78,8.29s-.25,6.87-.78,8.33c-.57,1.58-1.79,2.41-3.55,2.41h-.01ZM62.07,28.6c-1.36,0-2.2.55-2.65,1.72-.5,1.29-.76,3.96-.76,7.94s.26,6.66.76,7.98c.46,1.2,1.3,1.76,2.65,1.76s2.18-.56,2.61-1.75c.48-1.33.72-4.01.72-7.99s-.24-6.65-.72-7.94c-.43-1.17-1.26-1.71-2.61-1.71h0Z" fill="#b3b3b2"/><path d="M101.11,60.73c-6.11,0-10.74-1.94-13.9-5.83-3.16-3.88-4.74-9.43-4.74-16.65s1.57-12.82,4.7-16.65,7.78-5.74,13.94-5.74c2,0,3.88.19,5.66.58s3.23.94,4.37,1.66,1.71,1.55,1.71,2.5c0,.83-.14,1.93-.42,3.29-.28,1.36-.68,2.58-1.21,3.66s-1.12,1.62-1.79,1.62c-.72,0-1.65-.18-2.79-.54s-2.35-.54-3.62-.54c-2,0-3.45.79-4.37,2.37-.92,1.58-1.37,4.18-1.37,7.78s.46,6.22,1.37,7.83c.92,1.61,2.37,2.41,4.37,2.41,1.28,0,2.54-.18,3.79-.54s2.23-.54,2.96-.54c.67,0,1.22.54,1.66,1.62.44,1.08.79,2.3,1.04,3.66s.37,2.46.37,3.29c0,.94-.57,1.78-1.71,2.5s-2.59,1.28-4.37,1.67c-1.78.39-3.66.58-5.66.58h.01Z" fill="#fff"/><path d="M101.11,61.23c-6.23,0-11.04-2.02-14.29-6.01-3.22-3.96-4.86-9.66-4.86-16.96s1.62-13.06,4.82-16.97c3.22-3.93,8.04-5.93,14.33-5.93,2.02,0,3.96.2,5.77.59,1.82.4,3.35.98,4.53,1.73,1.29.82,1.94,1.8,1.94,2.92,0,.86-.14,2-.43,3.39-.28,1.39-.7,2.67-1.25,3.78-.62,1.26-1.37,1.9-2.24,1.9-.77,0-1.76-.19-2.94-.56-1.08-.34-2.25-.52-3.47-.52-1.82,0-3.11.69-3.94,2.12-.87,1.5-1.31,4.03-1.31,7.53s.44,6.05,1.31,7.58c.83,1.45,2.11,2.16,3.94,2.16,1.23,0,2.46-.18,3.65-.52,1.31-.38,2.32-.56,3.09-.56.88,0,1.6.65,2.13,1.93.46,1.11.82,2.38,1.07,3.76.25,1.38.38,2.52.38,3.38,0,1.12-.65,2.1-1.94,2.92-1.18.75-2.71,1.33-4.53,1.73-1.81.39-3.75.59-5.77.59v.02ZM101.11,16.36c-5.98,0-10.54,1.87-13.56,5.56-3.05,3.72-4.59,9.21-4.59,16.33s1.56,12.56,4.63,16.33c3.05,3.75,7.6,5.64,13.51,5.64,1.95,0,3.82-.19,5.55-.57,1.71-.37,3.13-.91,4.21-1.6.99-.63,1.47-1.31,1.47-2.08s-.12-1.88-.37-3.2c-.24-1.32-.58-2.52-1.01-3.56-.36-.87-.76-1.31-1.2-1.31-.67,0-1.62.18-2.82.52-1.28.37-2.6.56-3.93.56-2.18,0-3.8-.9-4.8-2.67-.97-1.7-1.44-4.34-1.44-8.07s.47-6.36,1.44-8.03c1.01-1.74,2.62-2.62,4.8-2.62,1.32,0,2.59.19,3.77.56,1.08.34,1.97.52,2.64.52.57,0,1.04-.73,1.34-1.34.51-1.04.9-2.23,1.17-3.54.27-1.32.41-2.39.41-3.19s-.48-1.45-1.47-2.08c-1.08-.69-2.5-1.22-4.21-1.6-1.74-.38-3.6-.57-5.55-.57h.01Z" fill="#b3b3b2"/><path d="M124.92,60.73c-3.72,0-6.53-1.23-8.45-3.7-1.91-2.47-2.87-5.73-2.87-9.78,0-1.61.22-3.29.67-5.04.44-1.75,1.36-3.38,2.75-4.91s3.44-2.77,6.16-3.75c2.72-.97,6.35-1.46,10.91-1.46v-1.66c0-2.11-1.42-3.16-4.25-3.16s-5.13.32-7.24.96-3.55.96-4.33.96c-.61,0-1.14-.54-1.58-1.62-.45-1.08-.78-2.29-1-3.62-.22-1.33-.33-2.39-.33-3.16s.55-1.46,1.67-2.04c1.11-.58,2.5-1.09,4.16-1.54,1.67-.44,3.36-.78,5.08-1,1.72-.22,3.22-.33,4.5-.33,4.66,0,8.28.61,10.86,1.83s4.38,2.91,5.41,5.08c1.03,2.16,1.54,4.66,1.54,7.49v15.48c0,2.72.07,4.75.21,6.08s.28,2.32.42,2.96.21,1.26.21,1.87c0,.94-.54,1.68-1.62,2.21s-2.37.87-3.87,1.04c-1.5.17-2.89.25-4.16.25-1.72,0-2.79-.33-3.2-1-.42-.67-.76-1.94-1.04-3.83-.5.67-1.22,1.43-2.16,2.29s-2.11,1.6-3.5,2.21-3.03.92-4.91.92l-.04-.03ZM131.08,49.41c1.55,0,2.55-.28,3-.83v-8.49c-2.16,0-3.76.37-4.79,1.12-1.03.75-1.54,1.99-1.54,3.7,0,3,1.11,4.5,3.33,4.5Z" fill="#fff"/><path d="M124.91,61.23c-3.86,0-6.84-1.31-8.84-3.9-1.98-2.55-2.98-5.94-2.98-10.09,0-1.65.23-3.38.68-5.16.46-1.82,1.42-3.54,2.86-5.12,1.44-1.58,3.58-2.89,6.36-3.88,2.66-.95,6.22-1.45,10.57-1.48v-1.17c0-1.14-.39-2.66-3.75-2.66-2.65,0-5.04.31-7.1.94-2.17.66-3.64.98-4.47.98s-1.52-.65-2.04-1.93c-.46-1.11-.8-2.37-1.03-3.73-.23-1.35-.34-2.44-.34-3.24,0-.98.65-1.81,1.93-2.48,1.13-.6,2.57-1.13,4.26-1.58,1.68-.45,3.41-.79,5.14-1.01,1.74-.22,3.27-.34,4.56-.34,4.71,0,8.44.63,11.08,1.88,2.67,1.27,4.58,3.05,5.65,5.32,1.05,2.22,1.59,4.82,1.59,7.71v15.48c0,2.69.07,4.72.2,6.03.13,1.3.27,2.28.41,2.9.15.68.22,1.34.22,1.98,0,1.15-.64,2.04-1.9,2.66-1.13.55-2.48.92-4.03,1.09-1.51.17-2.93.25-4.22.25-1.92,0-3.11-.4-3.63-1.23-.37-.59-.68-1.55-.93-2.93-.42.47-.93.97-1.51,1.5-.98.89-2.2,1.67-3.63,2.29-1.45.64-3.17.96-5.11.96v-.04ZM134.07,32.59c-4.47,0-8.08.48-10.74,1.43-2.63.94-4.63,2.15-5.96,3.61s-2.21,3.04-2.63,4.7c-.43,1.7-.65,3.35-.65,4.91,0,3.92.93,7.11,2.77,9.47,1.83,2.36,4.47,3.51,8.05,3.51,1.81,0,3.39-.29,4.71-.87,1.33-.58,2.46-1.3,3.36-2.12.92-.84,1.62-1.58,2.1-2.22l.72-.96.17,1.19c.33,2.25.71,3.22.97,3.64.22.35.88.76,2.78.76,1.25,0,2.64-.08,4.11-.25,1.44-.16,2.68-.49,3.71-.99.9-.44,1.34-1.01,1.34-1.76,0-.57-.07-1.16-.2-1.77-.14-.66-.29-1.67-.43-3.01s-.21-3.4-.21-6.13v-15.48c0-2.74-.5-5.19-1.49-7.28-.97-2.05-2.71-3.68-5.17-4.84-2.5-1.18-6.08-1.78-10.65-1.78-1.25,0-2.74.11-4.43.33s-3.38.55-5.01.99c-1.62.43-2.99.94-4.06,1.5-.93.49-1.4,1.02-1.4,1.6,0,.75.11,1.78.33,3.08.21,1.29.54,2.47.97,3.51.2.49.61,1.31,1.12,1.31.73,0,2.13-.31,4.18-.94,2.15-.65,4.64-.98,7.39-.98,3.92,0,4.75,1.99,4.75,3.66v2.16h-.5v.02ZM131.08,49.91c-1.75,0-3.83-.87-3.83-5,0-1.88.59-3.26,1.75-4.11,1.12-.82,2.79-1.22,5.08-1.22h.5v9.17l-.11.14c-.55.69-1.66,1.02-3.39,1.02ZM133.57,40.59c-1.79.05-3.14.4-3.99,1.02-.9.65-1.33,1.73-1.33,3.3,0,3.58,1.61,4,2.83,4,1.51,0,2.19-.27,2.5-.53v-7.78h0Z" fill="#b3b3b2"/><path d="M222.22,60.73c-3.72,0-6.53-1.23-8.45-3.7-1.91-2.47-2.87-5.73-2.87-9.78,0-1.61.22-3.29.67-5.04.44-1.75,1.36-3.38,2.75-4.91s3.44-2.77,6.16-3.75c2.72-.97,6.35-1.46,10.91-1.46v-1.66c0-2.11-1.42-3.16-4.25-3.16s-5.13.32-7.24.96-3.55.96-4.33.96c-.61,0-1.14-.54-1.58-1.62-.45-1.08-.78-2.29-1-3.62-.22-1.33-.33-2.39-.33-3.16s.55-1.46,1.67-2.04c1.11-.58,2.5-1.09,4.16-1.54,1.67-.44,3.36-.78,5.08-1,1.72-.22,3.22-.33,4.5-.33,4.66,0,8.28.61,10.86,1.83s4.38,2.91,5.41,5.08c1.03,2.16,1.54,4.66,1.54,7.49v15.48c0,2.72.07,4.75.21,6.08.14,1.33.28,2.32.42,2.96s.21,1.26.21,1.87c0,.94-.54,1.68-1.62,2.21-1.08.53-2.37.87-3.87,1.04-1.5.17-2.89.25-4.16.25-1.72,0-2.79-.33-3.2-1-.42-.67-.76-1.94-1.04-3.83-.5.67-1.22,1.43-2.16,2.29s-2.11,1.6-3.5,2.21-3.03.92-4.91.92l-.04-.03ZM228.38,49.41c1.55,0,2.55-.28,3-.83v-8.49c-2.16,0-3.76.37-4.79,1.12s-1.54,1.99-1.54,3.7c0,3,1.11,4.5,3.33,4.5h0Z" fill="#fff"/><path d="M222.22,61.23c-3.86,0-6.84-1.31-8.84-3.9-1.97-2.55-2.98-5.94-2.98-10.09,0-1.65.23-3.38.68-5.16.46-1.82,1.43-3.54,2.86-5.12,1.44-1.58,3.58-2.89,6.36-3.88,2.66-.95,6.22-1.45,10.57-1.48v-1.17c0-1.14-.39-2.66-3.75-2.66-2.65,0-5.04.31-7.1.94-2.17.66-3.64.98-4.47.98s-1.52-.65-2.04-1.93c-.46-1.11-.8-2.37-1.03-3.73-.23-1.37-.34-2.44-.34-3.25,0-.97.65-1.81,1.93-2.48,1.13-.59,2.57-1.13,4.26-1.58,1.68-.45,3.41-.79,5.14-1.01,1.74-.22,3.27-.34,4.56-.34,4.71,0,8.44.63,11.08,1.88,2.67,1.27,4.58,3.05,5.65,5.32,1.05,2.22,1.59,4.81,1.59,7.71v15.48c0,2.69.07,4.72.21,6.03.13,1.3.27,2.28.41,2.9.15.67.22,1.34.22,1.98,0,1.15-.64,2.04-1.9,2.66-1.13.55-2.49.92-4.03,1.09-1.51.17-2.93.25-4.22.25-1.92,0-3.11-.4-3.63-1.23-.37-.59-.68-1.55-.93-2.94-.42.47-.93.97-1.51,1.5-.98.89-2.2,1.67-3.63,2.29-1.45.64-3.17.96-5.11.96v-.02ZM231.38,32.59c-4.47,0-8.08.48-10.74,1.43-2.63.94-4.63,2.15-5.96,3.61s-2.21,3.04-2.63,4.7c-.43,1.7-.65,3.35-.65,4.91,0,3.92.93,7.11,2.77,9.47,1.83,2.36,4.47,3.51,8.05,3.51,1.81,0,3.39-.29,4.71-.87,1.33-.58,2.46-1.3,3.36-2.12.91-.83,1.62-1.58,2.1-2.22l.72-.96.17,1.19c.33,2.25.71,3.22.97,3.64.22.35.88.76,2.78.76,1.25,0,2.64-.08,4.11-.25,1.43-.16,2.68-.49,3.71-.99.9-.44,1.34-1.01,1.34-1.76,0-.57-.07-1.17-.2-1.77-.14-.66-.29-1.67-.42-3.01-.14-1.34-.21-3.41-.21-6.13v-15.48c0-2.74-.5-5.19-1.49-7.28-.97-2.05-2.71-3.68-5.17-4.84-2.5-1.18-6.08-1.78-10.65-1.78-1.25,0-2.74.11-4.43.33-1.69.22-3.38.55-5.01.99-1.63.43-2.99.94-4.06,1.5-.93.49-1.4,1.02-1.4,1.6,0,.74.11,1.78.33,3.08.21,1.29.54,2.47.97,3.51.2.49.61,1.31,1.12,1.31.73,0,2.13-.31,4.18-.94,2.15-.65,4.64-.98,7.39-.98,3.92,0,4.75,1.99,4.75,3.66v2.16h-.5v.02ZM228.38,49.91c-1.75,0-3.83-.87-3.83-5,0-1.88.59-3.26,1.75-4.11,1.12-.82,2.79-1.22,5.08-1.22h.5v9.17l-.11.14c-.55.69-1.66,1.02-3.39,1.02ZM230.88,40.59c-1.79.05-3.14.4-3.99,1.02-.9.65-1.33,1.73-1.33,3.3,0,3.58,1.62,4,2.83,4,1.51,0,2.19-.27,2.5-.53v-7.78h0Z" fill="#b3b3b2"/><path d="M257.19,60.23c-2.22,0-3.83-.29-4.83-.87s-1.5-1.46-1.5-2.62v-25.72c0-2.72-.07-4.74-.21-6.08-.14-1.33-.28-2.32-.42-2.96s-.21-1.26-.21-1.87c0-1,.5-1.75,1.5-2.25s2.22-.83,3.66-1,2.86-.25,4.25-.25c1.28,0,2.22.15,2.83.46s1.07.93,1.37,1.87.57,2.36.79,4.25c.83-2.16,2.16-3.93,4-5.29,1.83-1.36,3.52-2.04,5.08-2.04,1.66,0,2.5,1.03,2.5,3.08,0,1.83-.15,3.76-.46,5.79s-.74,3.75-1.29,5.16c-.56,1.42-1.19,2.12-1.91,2.12-.44,0-.93-.19-1.46-.58s-1.26-.58-2.21-.58c-.78,0-1.46.21-2.04.62-.58.42-1.01.93-1.29,1.54v23.72c0,1.17-.5,2.04-1.5,2.62s-2.61.87-4.83.87h-1.83,0Z" fill="#fff"/><path d="M259.02,60.73h-1.83c-2.33,0-3.99-.31-5.08-.94-1.16-.67-1.75-1.7-1.75-3.05v-25.72c0-2.68-.07-4.71-.21-6.03-.14-1.3-.27-2.28-.41-2.9-.14-.67-.22-1.33-.22-1.98,0-1.18.61-2.11,1.77-2.7,1.05-.52,2.33-.88,3.83-1.05,1.46-.17,2.91-.25,4.3-.25s2.36.17,3.05.51c.73.37,1.28,1.1,1.62,2.17.21.66.41,1.55.58,2.64.85-1.55,2-2.86,3.43-3.93,1.91-1.42,3.72-2.14,5.38-2.14,1.37,0,3,.62,3,3.58,0,1.84-.16,3.82-.46,5.86-.31,2.05-.75,3.83-1.32,5.27-.64,1.64-1.42,2.44-2.38,2.44-.55,0-1.14-.23-1.75-.68-.44-.32-1.08-.49-1.91-.49-.68,0-1.25.17-1.75.53-.49.35-.84.75-1.08,1.24v23.61c0,1.35-.59,2.38-1.75,3.05-1.09.63-2.75.94-5.08.94l.02.02ZM259.43,17.11c-1.36,0-2.77.08-4.19.25-1.38.16-2.55.48-3.5.95-.83.42-1.22.99-1.22,1.8,0,.58.07,1.17.2,1.77.14.66.29,1.67.43,3.01.14,1.35.21,3.42.21,6.13v25.72c0,.98.41,1.7,1.25,2.19.92.53,2.46.81,4.58.81h1.83c2.12,0,3.66-.27,4.58-.81.84-.49,1.25-1.21,1.25-2.19v-23.83l.04-.1c.31-.69.8-1.27,1.46-1.74.67-.48,1.45-.72,2.33-.72,1.04,0,1.89.23,2.5.68.44.32.83.49,1.16.49.48,0,.99-.64,1.45-1.81.54-1.37.96-3.07,1.26-5.05.3-2,.45-3.92.45-5.71,0-2.29-1.07-2.58-2-2.58-1.44,0-3.05.65-4.78,1.94-1.75,1.3-3.03,3-3.83,5.06l-.73,1.89-.24-2.01c-.22-1.84-.48-3.24-.77-4.15-.26-.81-.64-1.34-1.12-1.58-.54-.27-1.42-.41-2.61-.41h0Z" fill="#b3b3b2"/><path d="M288.61,12.28c-2.72,0-4.7-.29-5.95-.87s-1.87-1.46-1.87-2.62V3.96c0-1.16.62-2.04,1.87-2.62,1.25-.58,3.23-.87,5.95-.87s4.77.29,5.99.87c1.22.58,1.83,1.46,1.83,2.62v4.83c0,1.16-.61,2.04-1.83,2.62s-3.22.87-5.99.87ZM287.61,60.23c-2.22,0-3.83-.29-4.83-.87s-1.5-1.46-1.5-2.62V19.86c0-1.17.5-2.04,1.5-2.62s2.61-.87,4.83-.87h1.83c2.22,0,3.83.29,4.83.87s1.5,1.46,1.5,2.62v36.88c0,1.17-.5,2.04-1.5,2.62s-2.61.87-4.83.87h-1.83Z" fill="#fff"/><path d="M289.44,60.73h-1.83c-2.33,0-3.99-.31-5.08-.94-1.16-.67-1.75-1.7-1.75-3.05V19.86c0-1.35.59-2.38,1.75-3.05,1.09-.63,2.75-.94,5.08-.94h1.83c2.33,0,3.99.31,5.08.94,1.16.68,1.75,1.7,1.75,3.05v36.88c0,1.35-.59,2.38-1.75,3.05-1.09.63-2.75.94-5.08.94ZM287.61,16.86c-2.12,0-3.66.27-4.58.81-.84.49-1.25,1.21-1.25,2.19v36.88c0,.98.41,1.7,1.25,2.19.92.53,2.46.81,4.58.81h1.83c2.12,0,3.66-.27,4.58-.81.84-.49,1.25-1.21,1.25-2.19V19.86c0-.98-.41-1.7-1.25-2.19-.92-.54-2.46-.81-4.58-.81h-1.83ZM288.61,12.78c-2.82,0-4.83-.3-6.16-.92-1.43-.67-2.16-1.7-2.16-3.08V3.96c0-1.37.73-2.41,2.16-3.08,1.33-.62,3.35-.92,6.17-.92s4.91.3,6.21.92c1.41.67,2.12,1.71,2.12,3.07v4.83c0,1.35-.73,2.41-2.12,3.07-1.3.62-3.33.92-6.21.92h-.01ZM288.61.96c-2.63,0-4.56.28-5.74.83-1.07.5-1.58,1.21-1.58,2.17v4.83c0,.96.52,1.67,1.58,2.17,1.18.55,3.11.83,5.74.83s4.63-.28,5.78-.83c1.04-.5,1.55-1.21,1.55-2.17V3.96c0-.96-.51-1.67-1.55-2.17-1.15-.55-3.09-.82-5.78-.82h0Z" fill="#b3b3b2"/><path d="M306.92,60.23c-2.22,0-3.83-.29-4.83-.87s-1.5-1.46-1.5-2.62v-25.72c0-2.72-.07-4.74-.21-6.08-.14-1.33-.28-2.32-.42-2.96s-.21-1.26-.21-1.87c0-1,.55-1.75,1.67-2.25,1.11-.5,2.47-.83,4.08-1s3.16-.25,4.66-.25c1.78,0,2.88.37,3.33,1.12.45.75.78,2.23,1,4.45,1.11-1.67,2.57-3.14,4.37-4.41,1.8-1.28,3.9-1.91,6.29-1.91,7.32,0,10.99,3.86,10.99,11.57v29.3c0,1.17-.5,2.04-1.5,2.62s-2.61.87-4.83.87h-1.83c-2.22,0-3.83-.29-4.83-.87s-1.5-1.46-1.5-2.62v-25.14c0-1.11-.18-1.97-.54-2.58-.36-.61-1.1-.92-2.21-.92-1.44,0-2.72.5-3.83,1.5v27.14c0,1.17-.5,2.04-1.5,2.62s-2.61.87-4.83.87h-1.83,0Z" fill="#fff"/><path d="M329.81,60.73h-1.83c-2.33,0-3.99-.31-5.08-.94-1.16-.68-1.75-1.7-1.75-3.05v-25.14c0-1.01-.16-1.8-.47-2.33-.26-.44-.86-.67-1.78-.67-1.26,0-2.35.4-3.33,1.23v26.91c0,1.35-.59,2.38-1.75,3.05-1.09.63-2.75.94-5.08.94h-1.83c-2.33,0-4-.31-5.08-.94-1.16-.67-1.75-1.7-1.75-3.05v-25.72c0-2.68-.07-4.71-.21-6.03-.14-1.31-.27-2.28-.41-2.9-.14-.67-.22-1.33-.22-1.98,0-.83.34-1.98,1.96-2.7,1.15-.52,2.58-.87,4.23-1.04,1.62-.17,3.21-.25,4.71-.25,1.98,0,3.21.45,3.76,1.37.39.66.69,1.77.92,3.38,1.02-1.29,2.27-2.46,3.73-3.49,1.88-1.33,4.09-2.01,6.58-2.01,7.62,0,11.49,4.06,11.49,12.07v29.3c0,1.35-.59,2.38-1.75,3.05-1.09.63-2.75.94-5.08.94h.02ZM318.91,27.6c1.29,0,2.18.39,2.64,1.16.41.69.61,1.64.61,2.84v25.14c0,.98.41,1.7,1.25,2.19.92.53,2.46.81,4.58.81h1.83c2.12,0,3.66-.27,4.58-.81.84-.49,1.25-1.21,1.25-2.19v-29.3c0-7.45-3.43-11.07-10.49-11.07-2.27,0-4.29.61-6,1.82-1.75,1.24-3.18,2.68-4.24,4.28l-.78,1.16-.14-1.39c-.27-2.66-.65-3.78-.93-4.25-.34-.58-1.34-.88-2.9-.88-1.47,0-3.02.08-4.61.25-1.55.16-2.87.48-3.93.96-.93.42-1.37.99-1.37,1.79,0,.57.07,1.17.2,1.77.14.66.28,1.67.42,3.01.14,1.35.21,3.42.21,6.13v25.72c0,.98.41,1.7,1.25,2.19.92.53,2.46.81,4.58.81h1.83c2.12,0,3.66-.27,4.58-.81.84-.49,1.25-1.21,1.25-2.19v-27.36l.17-.15c1.2-1.08,2.6-1.63,4.16-1.63Z" fill="#b3b3b2"/><path d="M3.02,57.57V5.12c0-1.17.26-2.01.79-2.54.53-.53,1.37-.79,2.54-.79h13.9c5.11,0,9.21,1.26,12.32,3.79,3.11,2.53,4.66,6.73,4.66,12.61,0,6.49-2.64,11.18-7.91,14.07v.33c1.22.67,2.33,1.78,3.33,3.33,1,1.55,1.75,3.22,2.25,4.99l4.91,15.98.25,1c0,1.5-1.72,2.25-5.16,2.25h-2.91c-2.94,0-4.61-.75-4.99-2.25l-4.41-15.82c-.5-1.22-1.07-2.08-1.71-2.58-.64-.5-1.65-.75-3.04-.75h-2v18.81c0,1.78-1.67,2.66-4.99,2.66h-2.83c-3.33,0-4.99-.89-4.99-2.66v.02ZM20.5,26.6c1.22,0,2.26-.61,3.12-1.83.86-1.22,1.29-3,1.29-5.33s-.43-4.04-1.29-5.12-1.98-1.62-3.37-1.62h-4.41v13.9h4.66Z" fill="#000100"/><path d="M10.84,61.73h-2.83c-5.37,0-6.49-2.26-6.49-4.16V5.12c0-1.57.41-2.78,1.23-3.6.82-.81,2.03-1.23,3.6-1.23h13.9c5.43,0,9.9,1.39,13.27,4.12,3.46,2.81,5.22,7.45,5.22,13.78s-2.34,11.12-6.97,14.32c.77.7,1.49,1.57,2.15,2.6,1.08,1.67,1.89,3.49,2.43,5.4l4.9,15.95.32,1.44c0,2.49-2.24,3.75-6.66,3.75h-2.91c-3.7,0-5.87-1.13-6.45-3.37l-4.38-15.7c-.48-1.15-.92-1.66-1.21-1.89-.16-.13-.7-.43-2.11-.43h-.5v17.31c0,1.9-1.13,4.16-6.49,4.16h-.02ZM6.35,3.29c-.72,0-1.26.13-1.48.35-.22.22-.35.76-.35,1.48v52.44c0,1.05,2.44,1.16,3.49,1.16h2.83c1.05,0,3.49-.11,3.49-1.16v-20.31h3.5c1.75,0,3.04.35,3.96,1.07.85.67,1.56,1.71,2.17,3.19l.06.17,4.41,15.82c.27,1.04,2.57,1.15,3.55,1.15h2.91c2.51,0,3.46-.44,3.63-.68l-.18-.71-4.89-15.91c-.47-1.66-1.16-3.2-2.08-4.62-.86-1.33-1.79-2.28-2.79-2.82l-.78-.43v-2.11l.78-.43c4.8-2.62,7.13-6.8,7.13-12.75,0-5.38-1.38-9.23-4.11-11.45-2.82-2.29-6.65-3.45-11.37-3.45,0,0-13.88,0-13.88,0ZM20.5,28.1h-6.16V11.2h5.91c1.83,0,3.41.76,4.55,2.19,1.09,1.37,1.62,3.35,1.62,6.05s-.51,4.7-1.56,6.19c-1.44,2.04-3.16,2.47-4.35,2.47h-.01ZM17.34,25.1h3.16c.45,0,1.14-.12,1.9-1.2.67-.96,1.02-2.46,1.02-4.46s-.33-3.39-.96-4.19c-.57-.72-1.27-1.06-2.2-1.06h-2.91v10.9h-.01Z" fill="#dadada"/><path d="M177.49,41.04c-.5-.3-.94-.82-1.33-1.54l-6.16-11.49c-.33-.61-.67-1.32-1-2.12-.33-.8-.58-1.4-.75-1.79l-.33.08c.33,2,.5,3.52.5,4.58v28.8c0,.94-.38,1.62-1.12,2.04s-1.99.62-3.7.62h-2.83c-1.72,0-2.96-.21-3.7-.62-.75-.42-1.12-1.1-1.12-2.04V4.29c0-.94.37-1.62,1.12-2.04.75-.42,1.98-.62,3.7-.62h2.58c1.33,0,2.39.18,3.16.54.78.36,1.39.96,1.83,1.79l10.32,19.56c.55,1,1.08,2.33,1.58,4,.39-1.5.89-2.83,1.5-4l10.32-19.56c.44-.83,1.05-1.43,1.83-1.79.78-.36,1.83-.54,3.16-.54h2.58c1.72,0,2.96.21,3.7.62.75.42,1.12,1.1,1.12,2.04v53.28c0,.94-.38,1.62-1.12,2.04s-1.98.62-3.7.62h-2.83c-1.72,0-2.96-.21-3.7-.62s-1.12-1.1-1.12-2.04v-28.8c0-1.33.19-2.86.58-4.58l-.33-.08c-.39,1.05-1,2.36-1.83,3.91l-6.16,11.49c-.39.72-.83,1.24-1.33,1.54-.5.31-1.17.46-2,.46h-1.42c-.83,0-1.5-.15-2-.46h0Z" fill="#2d2e84"/><path d="M199.64,61.73h-2.83c-2,0-3.45-.27-4.43-.81-1.22-.68-1.9-1.87-1.9-3.35v-26.53l-4.92,9.17c-.52.96-1.15,1.67-1.87,2.11-.73.45-1.67.68-2.78.68h-1.42c-1.11,0-2.04-.23-2.78-.68-.73-.44-1.36-1.15-1.87-2.11l-4.92-9.17v26.53c0,1.48-.67,2.67-1.9,3.35-.98.55-2.43.81-4.43.81h-2.83c-2,0-3.45-.27-4.43-.81-1.22-.68-1.9-1.87-1.9-3.35V4.29c0-1.48.67-2.67,1.9-3.35.98-.55,2.43-.81,4.43-.81h2.58c1.57,0,2.81.22,3.79.68,1.08.5,1.92,1.32,2.52,2.44l10.33,19.57c.07.13.15.27.22.41.07-.14.14-.27.21-.41l10.32-19.57c.6-1.13,1.45-1.95,2.53-2.45.99-.46,2.23-.68,3.79-.68h2.58c2,0,3.45.27,4.43.81,1.22.68,1.9,1.87,1.9,3.35v53.28c0,1.48-.67,2.67-1.9,3.35-.98.55-2.43.81-4.43.81h0ZM191.29,22.32l3.06.76-.32,1.43c-.36,1.6-.55,3.03-.55,4.25v28.8c0,.49.16.62.35.73.29.16,1.07.44,2.98.44h2.83c1.91,0,2.68-.27,2.98-.44.19-.11.35-.24.35-.73V4.29c0-.49-.16-.62-.35-.73-.29-.16-1.07-.44-2.98-.44h-2.58c-1.38,0-2.14.22-2.53.4-.48.22-.85.59-1.14,1.14l-10.32,19.56c-.55,1.05-1.01,2.29-1.37,3.67l-1.35,5.2-1.54-5.15c-.46-1.55-.96-2.79-1.46-3.7l-10.34-19.59c-.29-.54-.66-.91-1.14-1.13-.39-.18-1.15-.4-2.53-.4h-2.58c-1.91,0-2.68.27-2.98.44-.19.11-.35.24-.35.73v53.28c0,.49.16.62.35.73.29.16,1.07.44,2.98.44h2.83c1.91,0,2.68-.27,2.98-.44.19-.11.35-.24.35-.73v-28.8c0-.97-.16-2.42-.48-4.33l-.23-1.37,2.92-.73.5,1.17c.17.39.42,1,.76,1.81.31.75.62,1.42.93,1.98l6.17,11.5c.32.6.61.86.79.97h0c.18.11.53.24,1.22.24h1.42c.68,0,1.04-.13,1.22-.24.18-.11.47-.37.79-.97l6.16-11.48c.79-1.48,1.38-2.73,1.75-3.72l.46-1.26v-.02Z" fill="#dadada"/><path d="M38.29,87.29v-1.56c.18.16.39.3.64.42.25.13.51.23.79.32.28.09.55.15.83.2.28.05.53.07.77.07.81,0,1.42-.15,1.82-.45.4-.3.6-.74.6-1.3,0-.3-.07-.57-.2-.79s-.32-.43-.55-.62c-.24-.19-.52-.36-.84-.54-.32-.17-.67-.35-1.04-.54-.39-.2-.76-.4-1.1-.61-.34-.2-.64-.43-.89-.68s-.45-.53-.59-.84-.22-.68-.22-1.1c0-.51.11-.96.34-1.34s.52-.69.89-.94.79-.43,1.25-.55c.47-.12.95-.18,1.44-.18,1.11,0,1.92.13,2.43.4v1.49c-.67-.46-1.52-.69-2.56-.69-.29,0-.58.03-.87.09-.29.06-.55.16-.77.29-.23.14-.41.31-.55.53s-.21.48-.21.79c0,.29.05.54.16.75s.27.4.48.57.47.34.77.5.65.34,1.04.54c.4.2.79.41,1.15.63.36.22.68.46.95.73.27.27.49.56.65.89s.24.7.24,1.12c0,.56-.11,1.03-.33,1.41-.22.38-.51.7-.88.94-.37.24-.8.42-1.28.52s-.99.16-1.53.16c-.18,0-.4-.01-.66-.04s-.53-.07-.8-.13-.53-.12-.77-.21c-.24-.08-.44-.17-.59-.27v.02Z" fill="#fff"/><path d="M41.11,88.44c-.19,0-.43-.02-.71-.05-.28-.03-.56-.08-.85-.13-.3-.06-.57-.13-.84-.22-.29-.1-.52-.2-.71-.33l-.22-.15v-2.94l.83.74c.15.13.32.25.53.35.23.11.46.21.71.29s.51.14.76.18c1.07.18,1.8.02,2.21-.29.27-.21.4-.49.4-.9,0-.21-.04-.39-.13-.54-.1-.17-.25-.33-.43-.48-.21-.17-.47-.33-.76-.49-.32-.17-.66-.35-1.03-.53-.41-.21-.78-.41-1.13-.62-.37-.22-.7-.47-.98-.75s-.53-.62-.7-.99c-.17-.37-.26-.81-.26-1.31,0-.6.14-1.14.41-1.6.26-.44.61-.81,1.04-1.1.41-.28.89-.49,1.41-.62.51-.13,1.03-.2,1.56-.2,1.21,0,2.08.15,2.66.46l.27.14v2.74l-.79-.54c-.58-.4-1.34-.6-2.28-.6-.25,0-.51.03-.76.08-.23.05-.44.13-.61.23-.16.1-.29.22-.39.37-.09.13-.13.3-.13.51s.04.38.11.52c.08.15.19.29.35.42.18.15.41.3.69.45.3.16.64.33,1.03.53.42.21.81.42,1.19.65.39.24.74.51,1.04.8.31.31.56.65.75,1.03.19.39.29.84.29,1.34,0,.64-.13,1.2-.39,1.66-.26.45-.61.83-1.04,1.11-.42.27-.91.47-1.44.59-.52.11-1.07.17-1.63.17l-.03.02ZM38.79,87c.07.03.15.06.24.09.23.08.47.14.72.19.26.05.51.09.76.12.24.03.44.04.61.04.5,0,.97-.05,1.42-.15.42-.09.8-.25,1.11-.45.3-.2.54-.45.72-.77.17-.31.26-.7.26-1.17,0-.34-.06-.64-.19-.9-.13-.27-.32-.53-.55-.75-.24-.24-.53-.46-.86-.66-.35-.21-.72-.42-1.11-.61-.4-.2-.75-.38-1.06-.54-.33-.18-.61-.37-.85-.56-.26-.22-.46-.46-.6-.73-.14-.28-.22-.61-.22-.97,0-.41.1-.76.29-1.06.18-.28.42-.51.71-.68.27-.17.59-.29.93-.36,1.11-.23,2.19-.08,3.03.26v-.33c-.36-.12-.95-.23-1.93-.23-.44,0-.88.06-1.31.17-.41.11-.78.27-1.1.48-.31.21-.55.46-.74.78-.18.3-.27.66-.27,1.09,0,.34.06.64.17.89.12.26.28.49.49.69.22.22.49.42.8.61.33.2.69.39,1.07.59.37.19.72.37,1.05.54.35.18.65.38.91.58.28.22.51.48.68.76.18.3.27.66.27,1.05,0,.72-.28,1.31-.8,1.7-.49.37-1.19.55-2.12.55-.26,0-.54-.03-.85-.08-.3-.05-.6-.12-.9-.22-.27-.09-.53-.19-.78-.31v.35Z" fill="#dadada"/><path d="M58.35,87.75h-5.98v-11.28h5.73v1.2h-4.41v3.75h4.08v1.19h-4.08v3.95h4.66v1.2h0Z" fill="#fff"/><path d="M58.85,88.25h-6.98v-12.28h6.73v2.2h-4.41v2.75h4.08v2.19h-4.08v2.95h4.66v2.2h0ZM52.87,87.25h4.98v-.2h-4.66v-4.95h4.08v-.19h-4.08v-4.75h4.41v-.2h-4.73v10.28h0Z" fill="#dadada"/><path d="M73.6,87.75h-1.57l-1.89-3.16c-.17-.29-.34-.54-.5-.75s-.33-.38-.5-.51c-.17-.13-.35-.23-.55-.29-.2-.06-.42-.09-.67-.09h-1.09v4.8h-1.32v-11.28h3.37c.49,0,.95.06,1.36.18s.78.31,1.09.56.55.57.72.94c.17.38.26.81.26,1.32,0,.39-.06.75-.18,1.08s-.29.62-.5.88-.48.48-.79.66-.65.32-1.03.42v.03c.19.08.35.18.49.29s.27.23.4.38c.13.15.25.31.37.5s.26.4.41.65l2.12,3.39h0ZM66.84,77.66v4.09h1.79c.33,0,.64-.05.92-.15s.52-.24.73-.43.36-.41.48-.68.17-.57.17-.91c0-.6-.2-1.07-.59-1.41-.39-.34-.96-.51-1.7-.51h-1.81,0Z" fill="#fff"/><path d="M74.5,88.25h-2.76l-2.03-3.41c-.16-.27-.32-.51-.47-.7-.13-.17-.27-.31-.41-.42-.12-.09-.25-.16-.39-.21-.15-.04-.32-.07-.52-.07h-.59v4.8h-2.32v-12.28h3.87c.54,0,1.05.07,1.51.21.48.14.9.36,1.26.66s.65.67.86,1.12c.2.44.31.95.31,1.53,0,.45-.07.87-.21,1.25s-.34.73-.59,1.03c-.25.3-.56.55-.91.76-.08.05-.16.09-.24.13.08.07.15.15.22.23.14.16.28.35.41.55.13.19.27.41.42.66l2.59,4.15h-.01ZM72.31,87.25h.39l-1.64-2.63c-.15-.24-.29-.46-.41-.64-.11-.17-.22-.32-.34-.45-.1-.12-.21-.22-.32-.31-.11-.08-.24-.16-.39-.23l-.18-.08s.01,0,.02.01c.21.16.4.36.59.6.17.22.35.49.54.8l1.74,2.92h0ZM66.02,87.25h.32v-4.8h1.59c.29,0,.57.04.81.11.2.06.4.16.58.27v-.65c-.22.04-.44.07-.68.07h-2.29v-5.09h2.31c.86,0,1.54.21,2.02.63.5.44.76,1.04.76,1.79,0,.4-.07.77-.21,1.11-.14.33-.34.62-.6.86-.13.12-.28.23-.43.32.15-.06.28-.13.41-.2.26-.15.48-.34.66-.55.18-.21.32-.45.41-.72.1-.27.15-.58.15-.91,0-.43-.07-.8-.21-1.11s-.33-.56-.58-.76c-.25-.21-.56-.37-.91-.47-.37-.11-.78-.16-1.22-.16h-2.87v10.28l-.02-.02ZM67.34,81.25h1.29c.27,0,.52-.04.75-.12.22-.08.4-.19.56-.33.15-.14.27-.31.36-.51.09-.21.13-.45.13-.71,0-.46-.14-.79-.41-1.03-.3-.26-.76-.39-1.37-.39h-1.31s0,3.09,0,3.09Z" fill="#dadada"/><path d="M88.53,76.47l-4.18,11.28h-1.46l-4.09-11.28h1.47l3.12,8.94c.1.29.18.62.23,1h.03c.04-.31.13-.65.26-1.01l3.19-8.93h1.43Z" fill="#fff"/><path d="M84.7,88.25h-2.15l-4.45-12.28h2.54l3.03,8.67,3.09-8.67h2.49s-4.55,12.28-4.55,12.28ZM83.25,87.25h.76l3.81-10.28h-.35l-3.07,8.6c-.12.33-.2.63-.23.91l-.06.43h-.87l-.09-.43c-.05-.34-.12-.65-.21-.91l-3.01-8.61h-.4l3.73,10.28h-.01Z" fill="#dadada"/><path d="M97.57,76.47v1.13h-1.1v9.02h1.1v1.13h-3.52v-1.13h1.1v-9.02h-1.1v-1.13s3.52,0,3.52,0Z" fill="#fff"/><path d="M98.07,88.25h-4.52v-2.13h1.1v-8.02h-1.1v-2.13h4.52v2.13h-1.1v8.02h1.1s0,2.13,0,2.13ZM94.55,87.25h2.52v-.13h-1.1v-10.02h1.1v-.13h-2.52v.13h1.1v10.02h-1.1s0,.13,0,.13Z" fill="#dadada"/><path d="M112.11,87.28c-.83.44-1.87.66-3.12.66-1.6,0-2.89-.52-3.85-1.55s-1.45-2.39-1.45-4.07c0-1.8.54-3.26,1.63-4.37s2.46-1.67,4.13-1.67c1.07,0,1.96.16,2.66.46v1.41c-.81-.45-1.7-.68-2.67-.68-1.3,0-2.35.43-3.15,1.3s-1.21,2.02-1.21,3.47.38,2.47,1.13,3.28,1.74,1.22,2.96,1.22c1.13,0,2.11-.25,2.94-.76v1.3Z" fill="#fff"/><path d="M108.99,88.44c-1.74,0-3.16-.58-4.22-1.71-1.05-1.12-1.58-2.61-1.58-4.41,0-1.93.6-3.52,1.77-4.72,1.18-1.21,2.69-1.82,4.49-1.82,1.13,0,2.1.17,2.86.51l.3.13v2.59l-.74-.42c-.73-.41-1.55-.61-2.43-.61-1.16,0-2.07.37-2.78,1.14-.72.78-1.07,1.8-1.07,3.13,0,1.25.33,2.22,1,2.95.66.71,1.51,1.06,2.59,1.06s1.94-.23,2.68-.68l.76-.46v2.47l-.27.14c-.9.48-2.03.72-3.35.72h-.01ZM109.45,76.78c-1.54,0-2.77.5-3.77,1.52s-1.49,2.34-1.49,4.02c0,1.56.43,2.78,1.31,3.73.87.94,2.02,1.39,3.49,1.39,1.02,0,1.9-.16,2.62-.47v-.16c-.73.3-1.55.45-2.44.45-1.36,0-2.48-.47-3.33-1.38-.84-.91-1.26-2.13-1.26-3.62,0-1.57.45-2.85,1.34-3.81.9-.97,2.08-1.46,3.52-1.46.77,0,1.5.13,2.17.39v-.28c-.59-.2-1.31-.31-2.16-.31h0Z" fill="#dadada"/><path d="M121.82,76.47v1.13h-1.1v9.02h1.1v1.13h-3.52v-1.13h1.1v-9.02h-1.1v-1.13s3.52,0,3.52,0Z" fill="#fff"/><path d="M122.32,88.25h-4.52v-2.13h1.1v-8.02h-1.1v-2.13h4.52v2.13h-1.1v8.02h1.1s0,2.13,0,2.13ZM118.8,87.25h2.52v-.13h-1.1v-10.02h1.1v-.13h-2.52v.13h1.1v10.02h-1.1s0,.13,0,.13Z" fill="#dadada"/><path d="M133.23,87.94c-1.6,0-2.88-.53-3.84-1.58-.96-1.05-1.44-2.43-1.44-4.11,0-1.82.49-3.26,1.47-4.34.98-1.08,2.32-1.62,4-1.62,1.56,0,2.81.52,3.76,1.57s1.43,2.42,1.43,4.12c0,1.84-.49,3.3-1.46,4.37-.98,1.07-2.28,1.6-3.92,1.6h0ZM133.33,77.47c-1.19,0-2.15.43-2.89,1.28s-1.11,1.98-1.11,3.37.36,2.51,1.08,3.36,1.66,1.27,2.82,1.27c1.24,0,2.21-.4,2.93-1.21s1.07-1.94,1.07-3.39-.35-2.64-1.04-3.45c-.69-.81-1.65-1.22-2.86-1.22h0Z" fill="#fff"/><path d="M133.23,88.44c-1.74,0-3.16-.59-4.21-1.74-1.04-1.14-1.57-2.64-1.57-4.45,0-1.93.54-3.51,1.6-4.68,1.07-1.18,2.55-1.79,4.37-1.79,1.7,0,3.09.58,4.13,1.74,1.03,1.14,1.56,2.64,1.56,4.45,0,1.96-.54,3.54-1.59,4.7-1.07,1.17-2.51,1.77-4.29,1.77ZM133.42,76.78c-1.56,0-2.74.48-3.63,1.46s-1.34,2.33-1.34,4.01c0,1.57.43,2.81,1.31,3.78.87.95,2.01,1.42,3.47,1.42s2.66-.47,3.55-1.44c.88-.97,1.33-2.33,1.33-4.03,0-1.58-.42-2.82-1.3-3.78-.86-.95-1.97-1.41-3.39-1.41h0ZM133.23,87.25c-1.31,0-2.38-.49-3.2-1.45-.8-.94-1.2-2.17-1.2-3.68s.41-2.75,1.23-3.69c.83-.97,1.93-1.46,3.27-1.46s2.46.47,3.24,1.39c.77.9,1.16,2.17,1.16,3.78s-.4,2.82-1.2,3.72c-.81.92-1.92,1.38-3.3,1.38h0ZM133.33,77.97c-1.04,0-1.86.36-2.51,1.11-.66.76-.99,1.78-.99,3.04s.32,2.28.96,3.03c.63.74,1.42,1.09,2.44,1.09,1.1,0,1.93-.34,2.55-1.04.63-.71.94-1.74.94-3.06s-.31-2.41-.92-3.13c-.6-.7-1.41-1.04-2.48-1.04h0Z" fill="#dadada"/><path d="M145.3,87.29v-1.56c.18.16.39.3.64.42.25.13.51.23.79.32s.55.15.83.2c.28.05.53.07.77.07.81,0,1.42-.15,1.82-.45.4-.3.6-.74.6-1.3,0-.3-.07-.57-.2-.79s-.32-.43-.55-.62c-.24-.19-.52-.36-.84-.54-.32-.17-.67-.35-1.04-.54-.39-.2-.76-.4-1.1-.61-.34-.2-.64-.43-.89-.68s-.45-.53-.59-.84-.22-.68-.22-1.1c0-.51.11-.96.34-1.34s.52-.69.89-.94.79-.43,1.25-.55c.47-.12.95-.18,1.44-.18,1.11,0,1.92.13,2.43.4v1.49c-.67-.46-1.52-.69-2.56-.69-.29,0-.58.03-.87.09s-.55.16-.77.29c-.23.14-.41.31-.55.53s-.21.48-.21.79c0,.29.05.54.16.75s.27.4.48.57c.21.17.47.34.77.5s.65.34,1.04.54c.4.2.79.41,1.15.63.36.22.68.46.95.73.27.27.49.56.65.89.16.33.24.7.24,1.12,0,.56-.11,1.03-.33,1.41-.22.38-.51.7-.88.94-.37.24-.8.42-1.28.52s-.99.16-1.53.16c-.18,0-.4-.01-.66-.04-.26-.03-.53-.07-.8-.13s-.53-.12-.77-.21c-.24-.08-.44-.17-.59-.27v.02Z" fill="#fff"/><path d="M148.12,88.44c-.19,0-.43-.02-.71-.05-.28-.03-.56-.08-.85-.13-.3-.06-.57-.13-.84-.22-.29-.1-.52-.2-.71-.33l-.22-.15v-2.94l.83.74c.15.13.32.25.53.35.23.11.46.21.71.29s.51.14.76.18c1.07.18,1.8.02,2.21-.29.27-.21.4-.49.4-.9,0-.21-.04-.39-.13-.54-.1-.17-.25-.33-.43-.48-.21-.17-.47-.33-.76-.49-.32-.17-.66-.35-1.03-.53-.41-.21-.78-.41-1.13-.62-.37-.22-.7-.47-.98-.75-.29-.29-.53-.62-.7-.99-.17-.37-.26-.81-.26-1.31,0-.6.14-1.14.41-1.6.26-.44.61-.81,1.04-1.1.41-.28.89-.49,1.41-.62.51-.13,1.03-.2,1.56-.2,1.21,0,2.08.15,2.66.46l.27.14v2.74l-.79-.54c-.58-.4-1.34-.6-2.28-.6-.25,0-.51.03-.76.08-.23.05-.44.13-.61.23-.16.1-.29.22-.39.37-.09.13-.13.3-.13.51s.04.38.11.52c.08.15.19.29.35.42.18.15.41.3.69.45.3.16.64.33,1.03.53.42.21.81.42,1.19.65.39.24.74.51,1.04.8.31.31.56.65.75,1.03.19.39.29.84.29,1.34,0,.64-.13,1.2-.39,1.66-.26.45-.61.83-1.04,1.11-.42.27-.91.47-1.44.59-.52.11-1.07.17-1.63.17l-.03.02ZM145.8,87c.07.03.15.06.24.09.23.08.47.14.72.19.26.05.51.09.76.12.24.03.44.04.61.04.5,0,.97-.05,1.42-.15.42-.09.8-.25,1.11-.45.3-.2.54-.45.72-.77.17-.31.26-.7.26-1.17,0-.34-.06-.64-.19-.9-.13-.27-.32-.53-.55-.75-.24-.24-.53-.46-.86-.66-.35-.21-.72-.42-1.11-.61-.4-.2-.75-.38-1.06-.54-.33-.18-.61-.37-.85-.56-.26-.22-.46-.46-.6-.73-.14-.28-.22-.61-.22-.97,0-.41.1-.76.29-1.06.18-.28.42-.51.71-.68.27-.17.59-.29.93-.36,1.11-.23,2.19-.08,3.03.26v-.33c-.36-.12-.95-.23-1.93-.23-.44,0-.88.06-1.31.17-.41.11-.78.27-1.1.48-.31.21-.55.46-.74.78-.18.3-.27.66-.27,1.09,0,.34.06.64.17.89.12.26.28.49.49.69.22.22.49.42.8.61.33.2.69.39,1.07.59.37.19.72.37,1.05.54.35.18.65.38.91.58.28.22.51.48.68.76.18.3.27.66.27,1.05,0,.72-.28,1.31-.8,1.7-.49.37-1.19.55-2.12.55-.26,0-.54-.03-.85-.08-.3-.05-.6-.12-.9-.22-.27-.09-.53-.19-.78-.31v.35h0Z" fill="#dadada"/><path d="M174.77,87.75h-5.98v-11.28h5.73v1.2h-4.41v3.75h4.08v1.19h-4.08v3.95h4.66v1.2h0Z" fill="#fff"/><path d="M175.27,88.25h-6.98v-12.28h6.73v2.2h-4.41v2.75h4.08v2.19h-4.08v2.95h4.66v2.2h0ZM169.29,87.25h4.98v-.2h-4.66v-4.95h4.08v-.19h-4.08v-4.75h4.41v-.2h-4.73v10.28h0Z" fill="#dadada"/><path d="M187.79,87.75h-5.85v-11.28h1.32v10.08h4.53v1.2Z" fill="#fff"/><path d="M188.29,88.25h-6.85v-12.28h2.32v10.08h4.53v2.2ZM182.43,87.25h4.85v-.2h-4.53v-10.08h-.32v10.28Z" fill="#dadada"/><path d="M200.49,87.75h-5.98v-11.28h5.73v1.2h-4.41v3.75h4.08v1.19h-4.08v3.95h4.66v1.2h0ZM199.35,72.86l-2.06,2.58h-1l1.75-2.58h1.31Z" fill="#fff"/><path d="M200.99,88.25h-6.98v-12.28h6.73v2.2h-4.41v2.75h4.08v2.19h-4.08v2.95h4.66v2.2h0ZM195.01,87.25h4.98v-.2h-4.66v-4.95h4.08v-.19h-4.08v-4.75h4.41v-.2h-4.73v10.28h0ZM197.53,75.94h-2.18l2.43-3.58h2.61l-2.86,3.58ZM198.31,73.36h0,0Z" fill="#dadada"/><path d="M215.33,87.28c-.83.44-1.87.66-3.12.66-1.6,0-2.89-.52-3.85-1.55-.97-1.03-1.45-2.39-1.45-4.07,0-1.8.54-3.26,1.63-4.37,1.09-1.11,2.46-1.67,4.13-1.67,1.07,0,1.96.16,2.66.46v1.41c-.81-.45-1.7-.68-2.67-.68-1.3,0-2.35.43-3.15,1.3-.81.87-1.21,2.02-1.21,3.47s.38,2.47,1.13,3.28,1.74,1.22,2.96,1.22c1.13,0,2.11-.25,2.94-.76v1.3Z" fill="#fff"/><path d="M212.22,88.44c-1.74,0-3.16-.58-4.22-1.71-1.05-1.12-1.58-2.61-1.58-4.41,0-1.93.6-3.52,1.77-4.72,1.18-1.21,2.69-1.82,4.49-1.82,1.13,0,2.1.17,2.86.51l.3.13v2.59l-.74-.42c-.73-.41-1.55-.61-2.43-.61-1.16,0-2.07.37-2.78,1.14-.72.78-1.07,1.8-1.07,3.13,0,1.26.33,2.22,1,2.95.66.71,1.51,1.06,2.59,1.06s1.94-.23,2.68-.68l.76-.46v2.47l-.27.14c-.9.48-2.03.72-3.35.72h0ZM212.67,76.78c-1.54,0-2.77.5-3.77,1.52s-1.49,2.34-1.49,4.02c0,1.56.43,2.78,1.31,3.73.87.94,2.02,1.39,3.49,1.39,1.02,0,1.9-.16,2.62-.47v-.16c-.73.3-1.55.45-2.44.45-1.36,0-2.48-.47-3.33-1.38-.84-.91-1.26-2.12-1.26-3.62s.45-2.85,1.34-3.81c.9-.97,2.08-1.46,3.52-1.46.77,0,1.5.13,2.17.39v-.28c-.59-.2-1.31-.31-2.16-.31h0Z" fill="#dadada"/><path d="M229.3,77.66h-3.26v10.09h-1.32v-10.09h-3.25v-1.2h7.83v1.2Z" fill="#fff"/><path d="M226.54,88.25h-2.32v-10.09h-3.25v-2.2h8.83v2.2h-3.26v10.09ZM225.22,87.25h.32v-10.09h3.26v-.2h-6.83v.2h3.25v10.09Z" fill="#dadada"/><path d="M244.15,87.75h-1.57l-1.89-3.16c-.17-.29-.34-.54-.5-.75s-.33-.38-.5-.51c-.17-.13-.35-.23-.55-.29s-.42-.09-.66-.09h-1.09v4.8h-1.32v-11.28h3.37c.49,0,.95.06,1.37.18s.78.31,1.09.56.55.57.72.94.26.81.26,1.32c0,.39-.06.75-.18,1.08s-.29.62-.5.88-.48.48-.79.66-.65.32-1.03.42v.03c.19.08.35.18.49.29s.27.23.4.38c.13.15.25.31.37.5s.26.4.41.65l2.12,3.39h-.02ZM237.38,77.66v4.09h1.79c.33,0,.64-.05.92-.15s.52-.24.73-.43c.21-.19.37-.41.48-.68.12-.27.17-.57.17-.91,0-.6-.2-1.07-.59-1.41-.39-.34-.96-.51-1.7-.51h-1.81.01Z" fill="#fff"/><path d="M245.05,88.25h-2.76l-2.03-3.41c-.16-.27-.32-.51-.47-.7-.14-.17-.28-.32-.41-.42-.12-.09-.25-.16-.39-.21-.15-.04-.32-.07-.52-.07h-.59v4.8h-2.32v-12.28h3.87c.54,0,1.05.07,1.51.21.48.14.9.36,1.26.66s.65.68.86,1.12c.2.44.31.95.31,1.53,0,.45-.07.87-.21,1.25s-.34.73-.59,1.03c-.25.3-.56.56-.92.76-.08.05-.16.09-.24.13.08.07.15.15.22.23.14.16.28.35.41.55.13.19.27.41.42.66l2.59,4.15h0ZM242.86,87.25h.39l-1.64-2.63c-.15-.24-.29-.46-.41-.64-.11-.17-.22-.32-.34-.45-.1-.12-.21-.23-.32-.31-.11-.08-.24-.16-.39-.23l-.19-.08s0,.01.02.02c.21.16.4.35.59.59.17.22.36.49.54.81l1.74,2.92h.01ZM236.56,87.25h.32v-4.8h1.59c.29,0,.57.04.81.11.2.06.4.16.58.27v-.65c-.22.04-.44.07-.68.07h-2.29v-5.09h2.31c.86,0,1.54.21,2.02.63.5.44.76,1.04.76,1.79,0,.4-.07.77-.21,1.1s-.35.62-.6.86c-.13.12-.28.23-.43.32.15-.06.28-.13.41-.2.26-.15.48-.33.66-.55.18-.21.32-.45.42-.72.1-.27.15-.58.15-.91,0-.43-.07-.8-.21-1.11s-.33-.56-.58-.76c-.25-.21-.56-.37-.91-.47-.37-.11-.78-.16-1.22-.16h-2.87v10.28h-.03ZM237.88,81.25h1.29c.27,0,.52-.04.75-.12.22-.08.4-.19.56-.33s.27-.31.36-.51c.09-.21.13-.45.13-.71,0-.46-.13-.79-.41-1.03-.29-.26-.76-.39-1.37-.39h-1.31v3.09Z" fill="#dadada"/><path d="M253.12,76.47v1.13h-1.1v9.02h1.1v1.13h-3.52v-1.13h1.1v-9.02h-1.1v-1.13s3.52,0,3.52,0Z" fill="#fff"/><path d="M253.62,88.25h-4.52v-2.13h1.1v-8.02h-1.1v-2.13h4.52v2.13h-1.1v8.02h1.1s0,2.13,0,2.13ZM250.09,87.25h2.52v-.13h-1.1v-10.02h1.1v-.13h-2.52v.13h1.1v10.02h-1.1v.13h0Z" fill="#dadada"/><path d="M267.65,87.28c-.83.44-1.87.66-3.12.66-1.6,0-2.89-.52-3.85-1.55-.97-1.03-1.45-2.39-1.45-4.07,0-1.8.54-3.26,1.63-4.37s2.46-1.67,4.13-1.67c1.07,0,1.96.16,2.66.46v1.41c-.81-.45-1.7-.68-2.67-.68-1.3,0-2.35.43-3.15,1.3-.81.87-1.21,2.02-1.21,3.47s.38,2.47,1.13,3.28,1.74,1.22,2.96,1.22c1.13,0,2.11-.25,2.94-.76v1.3Z" fill="#fff"/><path d="M264.54,88.44c-1.74,0-3.16-.58-4.22-1.71-1.05-1.12-1.58-2.61-1.58-4.41,0-1.93.6-3.52,1.77-4.72,1.18-1.21,2.69-1.82,4.49-1.82,1.13,0,2.1.17,2.86.51l.3.13v2.59l-.74-.42c-.73-.41-1.55-.61-2.43-.61-1.16,0-2.07.37-2.78,1.14-.72.78-1.07,1.8-1.07,3.13,0,1.26.33,2.22,1,2.95.66.71,1.51,1.06,2.59,1.06s1.94-.23,2.68-.68l.76-.46v2.47l-.27.14c-.9.48-2.03.72-3.35.72h0ZM264.99,76.78c-1.54,0-2.77.5-3.77,1.52s-1.49,2.34-1.49,4.02c0,1.56.43,2.78,1.31,3.73.87.94,2.02,1.39,3.49,1.39,1.02,0,1.9-.16,2.62-.47v-.16c-.73.3-1.55.45-2.44.45-1.36,0-2.48-.47-3.33-1.38-.84-.91-1.26-2.12-1.26-3.62s.45-2.85,1.34-3.81c.9-.97,2.08-1.46,3.52-1.46.77,0,1.5.13,2.17.39v-.28c-.59-.2-1.31-.31-2.16-.31h0Z" fill="#dadada"/><path d="M279.49,87.94c-1.6,0-2.88-.53-3.84-1.58s-1.44-2.43-1.44-4.11c0-1.82.49-3.26,1.47-4.34.98-1.08,2.32-1.62,4-1.62,1.56,0,2.81.52,3.76,1.57s1.43,2.42,1.43,4.12c0,1.84-.49,3.3-1.46,4.37-.98,1.07-2.28,1.6-3.92,1.6h0ZM279.59,77.47c-1.18,0-2.15.43-2.89,1.28s-1.11,1.98-1.11,3.37.36,2.51,1.08,3.36,1.66,1.27,2.82,1.27c1.24,0,2.21-.4,2.93-1.21.71-.81,1.07-1.94,1.07-3.39s-.35-2.64-1.04-3.45-1.65-1.22-2.86-1.22h0Z" fill="#fff"/><path d="M279.49,88.44c-1.74,0-3.16-.59-4.21-1.74-1.04-1.14-1.58-2.64-1.58-4.45,0-1.94.54-3.51,1.6-4.68,1.07-1.18,2.55-1.79,4.37-1.79,1.7,0,3.09.58,4.13,1.74,1.03,1.14,1.56,2.64,1.56,4.45,0,1.96-.54,3.54-1.59,4.7-1.07,1.17-2.51,1.77-4.29,1.77h0ZM279.68,76.78c-1.56,0-2.74.48-3.63,1.46-.89.98-1.34,2.33-1.34,4.01,0,1.57.43,2.81,1.31,3.78.87.95,2.01,1.42,3.47,1.42s2.66-.47,3.55-1.44c.88-.97,1.33-2.33,1.33-4.03,0-1.58-.42-2.82-1.3-3.78-.86-.95-1.97-1.41-3.39-1.41h0ZM279.49,87.25c-1.31,0-2.38-.49-3.2-1.45-.8-.94-1.2-2.17-1.2-3.68s.41-2.75,1.23-3.69c.83-.97,1.93-1.46,3.26-1.46s2.46.47,3.25,1.39c.77.9,1.16,2.17,1.16,3.78s-.4,2.82-1.19,3.72c-.81.92-1.92,1.38-3.3,1.38h-.01ZM279.59,77.97c-1.04,0-1.86.36-2.51,1.11-.66.76-.99,1.78-.99,3.04s.32,2.28.96,3.03c.63.74,1.42,1.09,2.44,1.09,1.1,0,1.93-.34,2.55-1.04.63-.71.94-1.74.94-3.06s-.31-2.41-.92-3.13c-.6-.7-1.41-1.04-2.48-1.04h.01Z" fill="#dadada"/><path d="M291.56,87.29v-1.56c.18.16.39.3.64.42.25.13.51.23.79.32s.55.15.83.2c.28.05.54.07.77.07.81,0,1.42-.15,1.82-.45.4-.3.6-.74.6-1.3,0-.3-.07-.57-.2-.79s-.32-.43-.55-.62c-.24-.19-.52-.36-.84-.54-.32-.17-.67-.35-1.04-.54-.39-.2-.76-.4-1.1-.61-.34-.2-.64-.43-.89-.68s-.45-.53-.59-.84c-.14-.31-.22-.68-.22-1.1,0-.51.11-.96.34-1.34s.52-.69.89-.94c.37-.25.79-.43,1.25-.55.47-.12.95-.18,1.44-.18,1.11,0,1.92.13,2.43.4v1.49c-.67-.46-1.52-.69-2.56-.69-.29,0-.58.03-.87.09s-.55.16-.77.29c-.23.14-.41.31-.55.53-.14.22-.21.48-.21.79,0,.29.05.54.16.75s.27.4.48.57.47.34.77.5.65.34,1.04.54c.4.2.79.41,1.15.63.36.22.68.46.95.73s.49.56.65.89.24.7.24,1.12c0,.56-.11,1.03-.33,1.41-.22.38-.51.7-.88.94-.37.24-.8.42-1.28.52s-.99.16-1.53.16c-.18,0-.4-.01-.66-.04s-.53-.07-.8-.13-.53-.12-.77-.21c-.24-.08-.44-.17-.59-.27v.02Z" fill="#fff"/><path d="M294.39,88.44c-.19,0-.43-.02-.71-.05-.28-.03-.56-.08-.85-.13-.3-.06-.57-.13-.84-.22-.29-.1-.52-.2-.71-.33l-.22-.15v-2.94l.83.74c.14.13.32.25.53.35.22.11.46.21.71.29s.51.14.76.18c1.07.18,1.8.02,2.21-.29.28-.21.4-.49.4-.9,0-.21-.04-.39-.13-.54-.1-.17-.25-.33-.43-.48-.21-.17-.47-.33-.76-.49-.32-.17-.66-.35-1.03-.53-.41-.21-.78-.41-1.13-.62-.37-.22-.7-.48-.98-.75-.29-.29-.53-.62-.7-.98-.17-.38-.26-.82-.26-1.31,0-.6.14-1.14.41-1.6.26-.44.61-.81,1.04-1.1.41-.28.89-.49,1.41-.62.51-.13,1.03-.2,1.56-.2,1.21,0,2.08.15,2.66.46l.27.14v2.74l-.79-.54c-.58-.4-1.34-.6-2.28-.6-.25,0-.51.03-.76.08-.23.05-.44.13-.62.23-.16.1-.29.22-.39.37-.09.13-.13.3-.13.51s.04.38.11.52c.08.15.19.29.35.42.18.15.42.3.69.45.3.16.64.33,1.03.53.42.21.81.42,1.19.65.39.24.75.51,1.04.8.31.31.56.65.75,1.03.19.39.29.84.29,1.34,0,.64-.13,1.2-.39,1.66-.26.45-.61.83-1.04,1.11-.42.27-.91.47-1.44.59-.52.11-1.07.17-1.63.17h-.02ZM292.06,87c.07.03.15.06.24.09.23.08.47.14.72.19.26.05.51.09.76.12.24.03.44.04.61.04.5,0,.97-.05,1.42-.15.42-.09.79-.25,1.11-.45.3-.2.54-.45.72-.77.17-.31.26-.7.26-1.17,0-.34-.06-.64-.19-.9-.13-.27-.32-.53-.55-.75-.24-.24-.53-.46-.86-.66-.35-.21-.72-.42-1.11-.61-.4-.2-.75-.38-1.06-.54-.33-.18-.61-.37-.85-.56-.26-.21-.46-.46-.6-.73-.14-.28-.22-.61-.22-.97,0-.41.1-.76.29-1.06.18-.28.42-.51.71-.68.27-.17.59-.29.93-.36,1.11-.23,2.19-.08,3.03.26v-.33c-.36-.12-.95-.23-1.93-.23-.44,0-.88.06-1.31.17-.41.11-.78.27-1.1.48-.3.2-.55.47-.74.78-.18.3-.27.66-.27,1.09,0,.34.06.64.17.89.12.25.28.49.49.69.22.22.49.42.8.61.33.2.69.39,1.07.59.37.19.72.37,1.05.54.35.18.65.38.91.58.28.22.51.48.68.76.18.3.27.66.27,1.05,0,.72-.28,1.31-.8,1.7-.63.47-1.56.71-2.97.47-.3-.05-.6-.12-.9-.22-.27-.09-.53-.19-.78-.31v.35h0Z" fill="#dadada"/></g></svg>